<svg width="163.42736511230467px" height="124.33014526367187px" xmlns="http://www.w3.org/2000/svg" viewBox="168.28631744384768 12.834927368164067 163.42736511230467 124.33014526367187" style="background: rgba(0, 0, 0, 0);" preserveAspectRatio="xMidYMid"><defs><filter id="editing-extrude-glow"><feFlood flood-color="#ff7aa7" result="flood-1"></feFlood><feMorphology operator="erode" radius="1" in="SourceAlpha" result="erode"></feMorphology><feComposite operator="in" in="flood-1" in2="erode" result="comp1"></feComposite><feConvolveMatrix order="3,3" divisor="1" in="comp1" result="convolve" kernelMatrix="0 0 0 1 1 1 0 0 0"></feConvolveMatrix><feOffset dx="-3" dy="0" in="convolve" result="extrude"></feOffset><feComposite operator="in" in="flood-1" in2="extrude" result="comp-extrude"></feComposite><feFlood flood-color="#acf1fc" result="flood-2"></feFlood><feComposite operator="in" in="flood-2" in2="SourceAlpha" result="comp2"></feComposite><feMorphology operator="dilate" radius="1" in="comp2" result="dilate"></feMorphology><feOffset dx="-4.5" dy="0" in="dilate" result="offset"></feOffset><feGaussianBlur in="offset" stdDeviation="5.8" result="blur"></feGaussianBlur><feComponentTransfer in="blur" result="shadow"><feFuncA type="linear" slope="0.8" intercept="-0.2"></feFuncA></feComponentTransfer><feMerge><feMergeNode in="shadow"></feMergeNode><feMergeNode in="comp-extrude"></feMergeNode><feMergeNode in="SourceGraphic"></feMergeNode></feMerge></filter></defs><g filter="url(#editing-extrude-glow)"><g transform="translate(196.7199993133545, 97.29125022888184)"><path d="M4.99 0L4.99-44.80L20.74-44.80L20.74-44.80Q26.82-44.80 29.79-41.09L29.79-41.09L29.79-41.09Q32.77-37.38 32.77-31.10L32.77-31.10L32.77-31.10Q32.77-27.07 32.13-23.84L32.13-23.84L32.13-23.84Q31.49-20.61 28.93-18.14L28.93-18.14L28.93-18.14Q26.37-15.68 21.18-15.68L21.18-15.68L8.58-15.68L8.58 0L4.99 0ZM21.25-19.20L21.25-19.20Q24.83-19.20 26.59-21.12L26.59-21.12L26.59-21.12Q28.35-23.04 28.77-25.47L28.77-25.47L28.77-25.47Q29.18-27.90 29.18-30.91L29.18-30.91L29.18-30.91Q29.18-36.16 27.01-38.78L27.01-38.78L27.01-38.78Q24.83-41.41 20.99-41.41L20.99-41.41L8.58-41.41L8.58-19.20L21.25-19.20ZM62.98-44.86L66.56-44.86L66.56-11.90L66.56-11.90Q66.56-5.44 62.62-2.50L62.62-2.50L62.62-2.50Q58.69 0.45 53.12 0.45L53.12 0.45L53.12 0.45Q47.55 0.45 43.58-2.50L43.58-2.50L43.58-2.50Q39.62-5.44 39.62-11.90L39.62-11.90L39.62-44.86L43.20-44.86L43.20-11.39L43.20-11.39Q43.20-7.49 46.05-5.12L46.05-5.12L46.05-5.12Q48.90-2.75 53.06-2.75L53.06-2.75L53.06-2.75Q57.22-2.75 60.10-5.12L60.10-5.12L60.10-5.12Q62.98-7.49 62.98-11.39L62.98-11.39L62.98-44.86ZM98.94 0L98.05-2.62L98.05-2.62Q94.72 0.64 88.77 0.64L88.77 0.64L88.77 0.64Q85.18 0.64 82.11-0.70L82.11-0.70L82.11-0.70Q79.04-2.05 77.15-4.93L77.15-4.93L77.15-4.93Q75.26-7.81 75.26-12.10L75.26-12.10L75.26-32.19L75.26-32.19Q75.26-36.67 76.70-39.39L76.70-39.39L76.70-39.39Q78.14-42.11 80.83-43.78L80.83-43.78L80.83-43.78Q83.65-45.38 87.74-45.38L87.74-45.38L87.74-45.38Q92.74-45.38 96.77-43.26L96.77-43.26L95.74-40.83L95.74-40.83Q92.10-42.18 88.83-42.18L88.83-42.18L88.83-42.18Q84.93-42.18 81.89-40.26L81.89-40.26L81.89-40.26Q78.85-38.34 78.85-32.77L78.85-32.77L78.85-11.97L78.85-11.97Q78.85-7.68 81.63-5.25L81.63-5.25L81.63-5.25Q84.42-2.82 88.70-2.82L88.70-2.82L88.70-2.82Q93.06-2.82 95.62-5.31L95.62-5.31L95.62-5.31Q98.18-7.81 98.18-11.90L98.18-11.90L98.18-15.68L93.95-15.68L92.74-19.20L101.57-19.20L101.57 0L98.94 0Z" fill="#32d4ff"></path></g></g><style>text {
  font-size: 64px;
  font-family: Arial Black;
  dominant-baseline: central;
  text-anchor: middle;
}</style></svg>